<?xml version="1.0" standalone="no"?>
<!DOCTYPE svg PUBLIC "-//W3C//DTD SVG 1.1//EN" "http://www.w3.org/Graphics/SVG/1.1/DTD/svg11.dtd">
<svg xmlns="http://www.w3.org/2000/svg" xmlns:xlink="http://www.w3.org/1999/xlink" id="Capa_1" data-name="Capa 1" viewBox="0 0 1381.96 411.84" width="1381.9599609375" height="411.8399963378906"><defs><style>.cls-1{fill:url(#Degradado_sin_nombre_79);}.cls-2{fill:url(#Degradado_sin_nombre_79-2);}.cls-3{fill:url(#Degradado_sin_nombre_79-3);}.cls-4{fill:url(#Degradado_sin_nombre_79-4);}.cls-5{fill:url(#Degradado_sin_nombre_79-5);}.cls-6{fill:url(#Degradado_sin_nombre_79-6);}.cls-7{fill:url(#Degradado_sin_nombre_79-7);}.cls-8{fill:url(#Degradado_sin_nombre_79-8);}.cls-9{fill:url(#Degradado_sin_nombre_79-9);}.cls-10{fill:url(#Degradado_sin_nombre_79-10);}.cls-11{fill:url(#Degradado_sin_nombre_79-11);}.cls-12{fill:url(#Degradado_sin_nombre_79-12);}.cls-13{fill:url(#Degradado_sin_nombre_79-13);}.cls-14{fill:url(#Degradado_sin_nombre_79-14);}.cls-15{fill:url(#Degradado_sin_nombre_79-15);}.cls-16{fill:url(#Degradado_sin_nombre_79-16);}.cls-17{fill:url(#Degradado_sin_nombre_79-17);}.cls-18{fill:url(#Degradado_sin_nombre_79-18);}.cls-19{fill:url(#Degradado_sin_nombre_79-19);}.cls-20{fill:url(#Degradado_sin_nombre_79-20);}.cls-21{fill:url(#Degradado_sin_nombre_79-21);}.cls-22{fill:url(#Degradado_sin_nombre_79-22);}.cls-23{fill:url(#Degradado_sin_nombre_79-23);}.cls-24{fill:url(#Degradado_sin_nombre_79-24);}.cls-25{fill:url(#Degradado_sin_nombre_79-25);}.cls-26{fill:url(#Degradado_sin_nombre_79-26);}.cls-27{fill:url(#Degradado_sin_nombre_72);}.cls-28{fill:url(#Degradado_sin_nombre_72-2);}.cls-29{fill:url(#Degradado_sin_nombre_72-3);}.cls-30{fill:url(#Degradado_sin_nombre_72-4);}.cls-31{fill:url(#Degradado_sin_nombre_72-5);}.cls-32{fill:url(#Degradado_sin_nombre_72-6);}.cls-33{fill:url(#Degradado_sin_nombre_72-7);}.cls-34{fill:url(#Degradado_sin_nombre_72-8);}.cls-35{fill:url(#Degradado_sin_nombre_72-9);}.cls-36{fill:url(#Degradado_sin_nombre_72-10);}.cls-37{fill:url(#Degradado_sin_nombre_72-11);}.cls-38{fill:url(#Degradado_sin_nombre_72-12);}.cls-39{fill:url(#Degradado_sin_nombre_72-13);}.cls-40{fill:url(#Degradado_sin_nombre_72-14);}.cls-41{fill:url(#Degradado_sin_nombre_79-27);}.cls-42{fill:url(#Degradado_sin_nombre_79-28);}.cls-43{fill:url(#Degradado_sin_nombre_79-29);}.cls-44{fill:url(#Degradado_sin_nombre_79-30);}.cls-45{fill:url(#Degradado_sin_nombre_79-31);}.cls-46{fill:url(#Degradado_sin_nombre_79-32);}.cls-47{fill:url(#Degradado_sin_nombre_79-33);}.cls-48{fill:url(#Degradado_sin_nombre_79-34);}.cls-49{fill:url(#Degradado_sin_nombre_79-35);}.cls-50{fill:url(#Degradado_sin_nombre_79-36);}.cls-51{fill:url(#Degradado_sin_nombre_79-37);}.cls-52{fill:url(#Degradado_sin_nombre_79-38);}.cls-53{fill:url(#Degradado_sin_nombre_79-39);}.cls-54{fill:none;}.cls-55{fill:url(#Degradado_sin_nombre_53);}</style><linearGradient id="Degradado_sin_nombre_79" x1="600.12" y1="238.75" x2="565.56" y2="218.8" gradientUnits="userSpaceOnUse"><stop offset="0" stop-color="#666"/><stop offset="0.34"/><stop offset="0.42" stop-color="#030303"/><stop offset="0.49" stop-color="#0d0d0d"/><stop offset="0.56" stop-color="#1e1e1e"/><stop offset="0.61" stop-color="#363636"/><stop offset="0.67" stop-color="#555"/><stop offset="0.7" stop-color="#666"/><stop offset="1" stop-color="#0a0a0a"/></linearGradient><linearGradient id="Degradado_sin_nombre_79-2" x1="622.22" y1="243.52" x2="604" y2="233" xlink:href="#Degradado_sin_nombre_79"/><linearGradient id="Degradado_sin_nombre_79-3" x1="664.53" y1="251.79" x2="631.62" y2="232.79" xlink:href="#Degradado_sin_nombre_79"/><linearGradient id="Degradado_sin_nombre_79-4" x1="700.02" y1="251.78" x2="665.95" y2="232.11" xlink:href="#Degradado_sin_nombre_79"/><linearGradient id="Degradado_sin_nombre_79-5" x1="733.03" y1="249.56" x2="704.11" y2="232.86" xlink:href="#Degradado_sin_nombre_79"/><linearGradient id="Degradado_sin_nombre_79-6" x1="766.27" y1="255.79" x2="733.53" y2="236.89" xlink:href="#Degradado_sin_nombre_79"/><linearGradient id="Degradado_sin_nombre_79-7" x1="806.81" y1="249.39" x2="777.62" y2="232.54" xlink:href="#Degradado_sin_nombre_79"/><linearGradient id="Degradado_sin_nombre_79-8" x1="829.64" y1="243.52" x2="811.42" y2="233" xlink:href="#Degradado_sin_nombre_79"/><linearGradient id="Degradado_sin_nombre_79-9" x1="866.67" y1="245.37" x2="836.71" y2="228.07" xlink:href="#Degradado_sin_nombre_79"/><linearGradient id="Degradado_sin_nombre_79-10" x1="893.75" y1="249.65" x2="864.23" y2="232.61" xlink:href="#Degradado_sin_nombre_79"/><linearGradient id="Degradado_sin_nombre_79-11" x1="927.39" y1="249.56" x2="898.47" y2="232.86" xlink:href="#Degradado_sin_nombre_79"/><linearGradient id="Degradado_sin_nombre_79-12" x1="966.62" y1="241.64" x2="942.66" y2="227.81" xlink:href="#Degradado_sin_nombre_79"/><linearGradient id="Degradado_sin_nombre_79-13" x1="999.19" y1="251.78" x2="965.12" y2="232.11" xlink:href="#Degradado_sin_nombre_79"/><linearGradient id="Degradado_sin_nombre_79-14" x1="1029.63" y1="245.37" x2="999.66" y2="228.07" xlink:href="#Degradado_sin_nombre_79"/><linearGradient id="Degradado_sin_nombre_79-15" x1="1056.7" y1="249.65" x2="1027.19" y2="232.61" xlink:href="#Degradado_sin_nombre_79"/><linearGradient id="Degradado_sin_nombre_79-16" x1="1078.35" y1="243.52" x2="1060.13" y2="233" xlink:href="#Degradado_sin_nombre_79"/><linearGradient id="Degradado_sin_nombre_79-17" x1="1121.24" y1="251.78" x2="1087.17" y2="232.11" xlink:href="#Degradado_sin_nombre_79"/><linearGradient id="Degradado_sin_nombre_79-18" x1="1159.23" y1="251.79" x2="1126.32" y2="232.79" xlink:href="#Degradado_sin_nombre_79"/><linearGradient id="Degradado_sin_nombre_79-19" x1="1193.28" y1="249.49" x2="1164.05" y2="232.61" xlink:href="#Degradado_sin_nombre_79"/><linearGradient id="Degradado_sin_nombre_79-20" x1="1216.25" y1="241.67" x2="1192.73" y2="228.08" xlink:href="#Degradado_sin_nombre_79"/><linearGradient id="Degradado_sin_nombre_79-21" x1="1245.96" y1="249.39" x2="1216.77" y2="232.54" xlink:href="#Degradado_sin_nombre_79"/><linearGradient id="Degradado_sin_nombre_79-22" x1="1284.82" y1="251.78" x2="1250.75" y2="232.11" xlink:href="#Degradado_sin_nombre_79"/><linearGradient id="Degradado_sin_nombre_79-23" x1="1322.81" y1="251.79" x2="1289.9" y2="232.79" xlink:href="#Degradado_sin_nombre_79"/><linearGradient id="Degradado_sin_nombre_79-24" x1="1343.47" y1="241.55" x2="1319.83" y2="227.9" xlink:href="#Degradado_sin_nombre_79"/><linearGradient id="Degradado_sin_nombre_79-25" x1="1373.69" y1="249.65" x2="1344.17" y2="232.61" xlink:href="#Degradado_sin_nombre_79"/><linearGradient id="Degradado_sin_nombre_79-26" x1="1407.32" y1="249.56" x2="1378.4" y2="232.86" xlink:href="#Degradado_sin_nombre_79"/><linearGradient id="Degradado_sin_nombre_72" x1="358.87" y1="190.6" x2="281.26" y2="145.79" gradientUnits="userSpaceOnUse"><stop offset="0"/><stop offset="0.05" stop-color="#090909"/><stop offset="0.12" stop-color="#222"/><stop offset="0.22" stop-color="#494949"/><stop offset="0.28" stop-color="#666"/><stop offset="0.63" stop-color="#0a0a0a"/><stop offset="0.69" stop-color="#151515"/><stop offset="0.78" stop-color="#323232"/><stop offset="0.9" stop-color="#606060"/><stop offset="0.91" stop-color="#666"/></linearGradient><linearGradient id="Degradado_sin_nombre_72-2" x1="437.19" y1="187.03" x2="359.19" y2="142" xlink:href="#Degradado_sin_nombre_72"/><linearGradient id="Degradado_sin_nombre_72-3" x1="526.42" y1="194.82" x2="443.32" y2="146.84" xlink:href="#Degradado_sin_nombre_72"/><linearGradient id="Degradado_sin_nombre_72-4" x1="872.73" y1="194.87" x2="789.77" y2="146.98" xlink:href="#Degradado_sin_nombre_72"/><linearGradient id="Degradado_sin_nombre_72-5" x1="610.63" y1="191.95" x2="530.65" y2="145.77" xlink:href="#Degradado_sin_nombre_72"/><linearGradient id="Degradado_sin_nombre_72-6" x1="695.77" y1="190.32" x2="621.44" y2="147.41" xlink:href="#Degradado_sin_nombre_72"/><linearGradient id="Degradado_sin_nombre_72-7" x1="1050.3" y1="202.59" x2="977.22" y2="160.39" xlink:href="#Degradado_sin_nombre_72"/><linearGradient id="Degradado_sin_nombre_72-8" x1="1272.88" y1="202.59" x2="1199.8" y2="160.39" xlink:href="#Degradado_sin_nombre_72"/><linearGradient id="Degradado_sin_nombre_72-9" x1="789.06" y1="202.59" x2="715.99" y2="160.39" xlink:href="#Degradado_sin_nombre_72"/><linearGradient id="Degradado_sin_nombre_72-10" x1="955.82" y1="191.17" x2="878.12" y2="146.32" xlink:href="#Degradado_sin_nombre_72"/><linearGradient id="Degradado_sin_nombre_72-11" x1="1154.54" y1="187.89" x2="1086.96" y2="148.87" xlink:href="#Degradado_sin_nombre_72"/><linearGradient id="Degradado_sin_nombre_72-12" x1="1375.79" y1="187.89" x2="1308.21" y2="148.87" xlink:href="#Degradado_sin_nombre_72"/><linearGradient id="Degradado_sin_nombre_72-13" x1="1153.7" y1="179.59" x2="1131.78" y2="166.94" xlink:href="#Degradado_sin_nombre_72"/><linearGradient id="Degradado_sin_nombre_72-14" x1="1273.66" y1="179.59" x2="1251.74" y2="166.94" xlink:href="#Degradado_sin_nombre_72"/><linearGradient id="Degradado_sin_nombre_79-27" x1="1358.17" y1="94.89" x2="1405.15" y2="94.89" xlink:href="#Degradado_sin_nombre_79"/><linearGradient id="Degradado_sin_nombre_79-28" x1="1373.19" y1="94.5" x2="1393.66" y2="94.5" xlink:href="#Degradado_sin_nombre_79"/><linearGradient id="Degradado_sin_nombre_79-29" x1="1039.97" y1="341.92" x2="932.53" y2="279.88" xlink:href="#Degradado_sin_nombre_79"/><linearGradient id="Degradado_sin_nombre_79-30" x1="1070.73" y1="331" x2="1049.53" y2="318.76" xlink:href="#Degradado_sin_nombre_79"/><linearGradient id="Degradado_sin_nombre_79-31" x1="1105.92" y1="343.56" x2="1066.83" y2="320.99" xlink:href="#Degradado_sin_nombre_79"/><linearGradient id="Degradado_sin_nombre_79-32" x1="1139.57" y1="337.97" x2="1115.24" y2="323.92" xlink:href="#Degradado_sin_nombre_79"/><linearGradient id="Degradado_sin_nombre_79-33" x1="1169.9" y1="338.17" x2="1146.58" y2="324.7" xlink:href="#Degradado_sin_nombre_79"/><linearGradient id="Degradado_sin_nombre_79-34" x1="1233.93" y1="322.78" x2="1211.68" y2="309.93" xlink:href="#Degradado_sin_nombre_79"/><linearGradient id="Degradado_sin_nombre_79-35" x1="1287.63" y1="330.43" x2="1255.1" y2="311.65" xlink:href="#Degradado_sin_nombre_79"/><linearGradient id="Degradado_sin_nombre_79-36" x1="1341.3" y1="328.52" x2="1306.92" y2="308.67" xlink:href="#Degradado_sin_nombre_79"/><linearGradient id="Degradado_sin_nombre_79-37" x1="1389.32" y1="330.04" x2="1352.31" y2="308.67" xlink:href="#Degradado_sin_nombre_79"/><linearGradient id="Degradado_sin_nombre_79-38" x1="471.86" y1="193.08" x2="195.04" y2="33.26" xlink:href="#Degradado_sin_nombre_79"/><linearGradient id="Degradado_sin_nombre_79-39" x1="444.65" y1="436.49" x2="122.59" y2="250.54" xlink:href="#Degradado_sin_nombre_79"/><linearGradient id="Degradado_sin_nombre_53" x1="505.9" y1="482.49" x2="150.02" y2="58.36" gradientUnits="userSpaceOnUse"><stop offset="0" stop-color="#50b8e9"/><stop offset="0.07" stop-color="#4eafe3"/><stop offset="0.18" stop-color="#4797d2"/><stop offset="0.3" stop-color="#3e75bb"/><stop offset="0.32" stop-color="#407bbf"/><stop offset="0.48" stop-color="#4eb1e4"/><stop offset="0.55" stop-color="#50b8e9"/><stop offset="0.78" stop-color="#407cc0"/><stop offset="0.83" stop-color="#4795d1"/><stop offset="0.88" stop-color="#4ca9de"/><stop offset="0.94" stop-color="#4fb4e6"/><stop offset="0.99" stop-color="#50b8e9"/></linearGradient></defs><path class="cls-1" d="M600.6,219.72h-9.7v32.76a6.13,6.13,0,0,1-1.23,4.2,4.05,4.05,0,0,1-3.17,1.37,4.11,4.11,0,0,1-3.22-1.39,6.07,6.07,0,0,1-1.24-4.18V219.72h-9.7a4.83,4.83,0,0,1-3.39-1,3.91,3.91,0,0,1,0-5.49,4.89,4.89,0,0,1,3.34-1H600.6a4.87,4.87,0,0,1,3.43,1,3.57,3.57,0,0,1,1.13,2.74,3.49,3.49,0,0,1-1.14,2.72A4.94,4.94,0,0,1,600.6,219.72Z" transform="translate(-25 -17.59)"/><path class="cls-2" d="M615.64,245.93v7a5.5,5.5,0,0,1-1.17,3.83,3.86,3.86,0,0,1-3,1.28,3.7,3.7,0,0,1-2.9-1.29,5.64,5.64,0,0,1-1.14-3.82V229.56q0-5.66,4-5.66a3.31,3.31,0,0,1,2.94,1.33,7.41,7.41,0,0,1,1,3.9,14.4,14.4,0,0,1,3-3.9,6.1,6.1,0,0,1,4.11-1.33,10.32,10.32,0,0,1,5,1.33,4,4,0,0,1,2.43,3.5,3.41,3.41,0,0,1-1,2.54,3.17,3.17,0,0,1-2.23,1,10.09,10.09,0,0,1-2.18-.57,9.8,9.8,0,0,0-3-.57,4.4,4.4,0,0,0-2.93,1,6.28,6.28,0,0,0-1.77,2.88,19.93,19.93,0,0,0-.86,4.54Q615.64,242.15,615.64,245.93Z" transform="translate(-25 -17.59)"/><path class="cls-3" d="M653.51,253.31a24.93,24.93,0,0,1-5.73,3.55,15.66,15.66,0,0,1-6.21,1.19,11.55,11.55,0,0,1-5.53-1.28,9.15,9.15,0,0,1-4.95-8.2,8.65,8.65,0,0,1,2.12-5.87,10.56,10.56,0,0,1,5.84-3.26c.52-.13,1.81-.4,3.86-.83s3.82-.83,5.29-1.19,3.06-.79,4.78-1.3a8.93,8.93,0,0,0-1.31-4.88q-1.15-1.55-4.77-1.55a9.8,9.8,0,0,0-4.69.89,7.62,7.62,0,0,0-2.69,2.67c-.75,1.19-1.28,2-1.59,2.36a2.55,2.55,0,0,1-2,.57,3.45,3.45,0,0,1-2.38-.91,3,3,0,0,1-1-2.32,7.23,7.23,0,0,1,1.53-4.31,11,11,0,0,1,4.76-3.44,20.81,20.81,0,0,1,8.06-1.36,22.27,22.27,0,0,1,8.47,1.31,8,8,0,0,1,4.36,4.14,18.48,18.48,0,0,1,1.27,7.5c0,2,0,3.64,0,5s0,2.9,0,4.58a17.68,17.68,0,0,0,.76,4.94,16,16,0,0,1,.77,3.3,3.17,3.17,0,0,1-1.18,2.36,4,4,0,0,1-2.68,1.06,3.59,3.59,0,0,1-2.49-1.22A17.9,17.9,0,0,1,653.51,253.31ZM653,241.16a40.12,40.12,0,0,1-5.23,1.43c-2.29.5-3.87.87-4.75,1.11a6.46,6.46,0,0,0-2.51,1.38,3.6,3.6,0,0,0-1.2,2.88,4.3,4.3,0,0,0,1.41,3.24,5.08,5.08,0,0,0,3.68,1.34,9.36,9.36,0,0,0,4.48-1.09,7.18,7.18,0,0,0,3-2.82q1.11-1.9,1.11-6.27Z" transform="translate(-25 -17.59)"/><path class="cls-4" d="M676.72,228.55v1a14.5,14.5,0,0,1,4.72-4.29,12.27,12.27,0,0,1,5.88-1.37,11.54,11.54,0,0,1,5.78,1.45,9.07,9.07,0,0,1,3.8,4.09,9.92,9.92,0,0,1,1.05,3.32,35.37,35.37,0,0,1,.24,4.56v15.62a5.69,5.69,0,0,1-1.12,3.82,4,4,0,0,1-5.89,0,5.61,5.61,0,0,1-1.13-3.78V239a14.33,14.33,0,0,0-1.13-6.36c-.75-1.46-2.24-2.2-4.47-2.2a6.55,6.55,0,0,0-4,1.34,7.72,7.72,0,0,0-2.63,3.68,26.94,26.94,0,0,0-.6,7v10.52a5.55,5.55,0,0,1-1.15,3.83,3.84,3.84,0,0,1-3,1.28,3.65,3.65,0,0,1-2.91-1.33,5.62,5.62,0,0,1-1.14-3.78V228.67a5.37,5.37,0,0,1,1-3.58,3.49,3.49,0,0,1,2.79-1.19,3.64,3.64,0,0,1,1.94.53,3.72,3.72,0,0,1,1.4,1.57A5.6,5.6,0,0,1,676.72,228.55Z" transform="translate(-25 -17.59)"/><path class="cls-5" d="M732.66,247.07a10.49,10.49,0,0,1-1.65,6,10.1,10.1,0,0,1-4.87,3.75,21.25,21.25,0,0,1-7.83,1.28,18.49,18.49,0,0,1-7.54-1.39,10.86,10.86,0,0,1-4.64-3.46,7.06,7.06,0,0,1-1.5-4.16,3.25,3.25,0,0,1,1-2.37,3.22,3.22,0,0,1,2.42-1,2.79,2.79,0,0,1,2,.65,7,7,0,0,1,1.32,1.81,9,9,0,0,0,3,3.36,8.91,8.91,0,0,0,4.77,1.1,6.76,6.76,0,0,0,4-1.12,3.16,3.16,0,0,0,1.57-2.57,3.53,3.53,0,0,0-1.63-3.23,20.25,20.25,0,0,0-5.38-1.94,43.12,43.12,0,0,1-6.87-2.26,11.32,11.32,0,0,1-4.23-3.12,7.27,7.27,0,0,1-1.59-4.77,8.52,8.52,0,0,1,1.47-4.76,10.07,10.07,0,0,1,4.32-3.59,16.24,16.24,0,0,1,6.9-1.34,22.19,22.19,0,0,1,5.71.68,14.05,14.05,0,0,1,4.22,1.82,8.76,8.76,0,0,1,2.58,2.52,5.08,5.08,0,0,1,.88,2.71,3.18,3.18,0,0,1-.94,2.36,3.67,3.67,0,0,1-2.68.93,3.26,3.26,0,0,1-2.15-.74,14.58,14.58,0,0,1-2-2.22,7.55,7.55,0,0,0-2.18-2,6.79,6.79,0,0,0-3.42-.73,6.61,6.61,0,0,0-3.68,1,2.85,2.85,0,0,0-1.47,2.42,2.65,2.65,0,0,0,1.08,2.17,9,9,0,0,0,2.91,1.4q1.82.56,5,1.35a26.79,26.79,0,0,1,6.21,2.28,10.35,10.35,0,0,1,3.65,3.12A7.05,7.05,0,0,1,732.66,247.07Z" transform="translate(-25 -17.59)"/><path class="cls-6" d="M747.12,228.61v1a16.39,16.39,0,0,1,4.79-4.3,11.5,11.5,0,0,1,5.63-1.36,12.83,12.83,0,0,1,7,2,13.78,13.78,0,0,1,5,5.85,20.84,20.84,0,0,1,1.84,9.1,22.79,22.79,0,0,1-1.06,7.13,16.14,16.14,0,0,1-2.92,5.44,12.73,12.73,0,0,1-4.39,3.38,12.6,12.6,0,0,1-5.43,1.19,11,11,0,0,1-5.88-1.45,16.86,16.86,0,0,1-4.54-4.24V265q0,5.53-3.92,5.54-2.31,0-3.06-1.44a9.17,9.17,0,0,1-.75-4.16V228.67a5.37,5.37,0,0,1,1-3.58,3.49,3.49,0,0,1,2.79-1.19,3.61,3.61,0,0,1,2.82,1.22A5,5,0,0,1,747.12,228.61Zm16,12.21a14.83,14.83,0,0,0-1-5.7,8.32,8.32,0,0,0-2.74-3.66,6.38,6.38,0,0,0-3.88-1.28,7.19,7.19,0,0,0-5.7,2.74q-2.33,2.73-2.32,8.06,0,5,2.3,7.79a7.15,7.15,0,0,0,5.72,2.79,6.42,6.42,0,0,0,3.77-1.22,8.31,8.31,0,0,0,2.79-3.64A14.79,14.79,0,0,0,763.14,240.82Z" transform="translate(-25 -17.59)"/><path class="cls-7" d="M808.5,241a20.3,20.3,0,0,1-1.14,6.92,15.2,15.2,0,0,1-3.29,5.44,14.47,14.47,0,0,1-5.15,3.49,17.79,17.79,0,0,1-6.74,1.22,17.24,17.24,0,0,1-6.67-1.23,14.91,14.91,0,0,1-5.14-3.52,15.18,15.18,0,0,1-3.29-5.42A20.22,20.22,0,0,1,776,241a20.54,20.54,0,0,1,1.14-7,15.29,15.29,0,0,1,3.27-5.41,14.22,14.22,0,0,1,5.15-3.46,19,19,0,0,1,13.41,0,14.72,14.72,0,0,1,5.18,3.51,15.23,15.23,0,0,1,3.28,5.41A20.44,20.44,0,0,1,808.5,241Zm-8.2,0c0-3.43-.74-6.09-2.2-8a7.08,7.08,0,0,0-5.92-2.86,7.2,7.2,0,0,0-4.22,1.27,8,8,0,0,0-2.81,3.77,17.57,17.57,0,0,0,0,11.57,8.28,8.28,0,0,0,2.79,3.77,7.58,7.58,0,0,0,10.18-1.57C799.56,247,800.3,244.36,800.3,241Z" transform="translate(-25 -17.59)"/><path class="cls-8" d="M823.05,245.93v7a5.5,5.5,0,0,1-1.16,3.83,3.86,3.86,0,0,1-3,1.28,3.69,3.69,0,0,1-2.9-1.29,5.64,5.64,0,0,1-1.14-3.82V229.56q0-5.66,4-5.66a3.31,3.31,0,0,1,2.94,1.33,7.41,7.41,0,0,1,1,3.9,14.59,14.59,0,0,1,3-3.9,6.13,6.13,0,0,1,4.12-1.33,10.32,10.32,0,0,1,5,1.33,4,4,0,0,1,2.43,3.5,3.41,3.41,0,0,1-1,2.54,3.17,3.17,0,0,1-2.24,1,10.06,10.06,0,0,1-2.17-.57,9.8,9.8,0,0,0-3-.57,4.4,4.4,0,0,0-2.93,1,6.28,6.28,0,0,0-1.77,2.88,20.46,20.46,0,0,0-.87,4.54Q823.05,242.15,823.05,245.93Z" transform="translate(-25 -17.59)"/><path class="cls-9" d="M843,224.64h.9v-5c0-1.36,0-2.42.1-3.19a4.9,4.9,0,0,1,.58-2A3.78,3.78,0,0,1,846,213a3.83,3.83,0,0,1,2-.54,4,4,0,0,1,2.81,1.2,3.63,3.63,0,0,1,1.07,1.95,18.37,18.37,0,0,1,.22,3.28v5.72h3a3.72,3.72,0,0,1,2.65.85,2.83,2.83,0,0,1,.92,2.17,2.46,2.46,0,0,1-1.3,2.37,8.32,8.32,0,0,1-3.73.67h-1.53v15.44a25.3,25.3,0,0,0,.14,3,3.13,3.13,0,0,0,.71,1.73,2.44,2.44,0,0,0,1.91.66,10.28,10.28,0,0,0,1.94-.26,9.59,9.59,0,0,1,1.92-.27,2.45,2.45,0,0,1,1.78.82,2.75,2.75,0,0,1,.79,2,3.37,3.37,0,0,1-2.15,3.11,14.22,14.22,0,0,1-6.2,1.08,10.4,10.4,0,0,1-5.81-1.33,6.11,6.11,0,0,1-2.59-3.66,25.35,25.35,0,0,1-.61-6.24V230.7h-1.08a3.86,3.86,0,0,1-2.7-.86,2.84,2.84,0,0,1-.93-2.18,2.75,2.75,0,0,1,1-2.17A4.16,4.16,0,0,1,843,224.64Z" transform="translate(-25 -17.59)"/><path class="cls-10" d="M887.07,243h-16a11.37,11.37,0,0,0,1.13,5,7.81,7.81,0,0,0,2.9,3.29,7.51,7.51,0,0,0,4,1.11,9.77,9.77,0,0,0,2.68-.35,8.82,8.82,0,0,0,2.35-1.11,17.18,17.18,0,0,0,2.1-1.62c.63-.57,1.46-1.35,2.48-2.33a2.64,2.64,0,0,1,1.8-.56,2.9,2.9,0,0,1,2,.71,2.56,2.56,0,0,1,.78,2,5.54,5.54,0,0,1-.87,2.66,10.18,10.18,0,0,1-2.62,2.92,14.6,14.6,0,0,1-4.4,2.33,18.61,18.61,0,0,1-6.09.92q-7.87,0-12.25-4.62t-4.37-12.52a21.33,21.33,0,0,1,1.08-6.9,15.48,15.48,0,0,1,3.14-5.46,13.65,13.65,0,0,1,5.09-3.49,17.85,17.85,0,0,1,6.71-1.22,15.54,15.54,0,0,1,8.22,2.08,13.5,13.5,0,0,1,5.14,5.37,14.49,14.49,0,0,1,1.7,6.7c0,2.11-.59,3.48-1.76,4.11A10.73,10.73,0,0,1,887.07,243Zm-16-4.77h14.83c-.2-2.87-1-5-2.26-6.44a6.67,6.67,0,0,0-5.17-2.14,6.42,6.42,0,0,0-5,2.17A10.92,10.92,0,0,0,871.08,238.27Z" transform="translate(-25 -17.59)"/><path class="cls-11" d="M927,247.07a10.49,10.49,0,0,1-1.65,6,10.08,10.08,0,0,1-4.86,3.75,21.33,21.33,0,0,1-7.83,1.28,18.54,18.54,0,0,1-7.55-1.39,10.93,10.93,0,0,1-4.64-3.46A7.06,7.06,0,0,1,899,249a3.33,3.33,0,0,1,3.39-3.36,2.79,2.79,0,0,1,2,.65,7,7,0,0,1,1.32,1.81,9.12,9.12,0,0,0,3,3.36,9,9,0,0,0,4.78,1.1,6.75,6.75,0,0,0,4-1.12,3.16,3.16,0,0,0,1.57-2.57,3.53,3.53,0,0,0-1.63-3.23,20.29,20.29,0,0,0-5.37-1.94,42.45,42.45,0,0,1-6.87-2.26,11.35,11.35,0,0,1-4.24-3.12,7.27,7.27,0,0,1-1.59-4.77,8.52,8.52,0,0,1,1.47-4.76,10.1,10.1,0,0,1,4.33-3.59,16.17,16.17,0,0,1,6.9-1.34,22.16,22.16,0,0,1,5.7.68A13.83,13.83,0,0,1,922,226.4a8.76,8.76,0,0,1,2.58,2.52,5,5,0,0,1,.88,2.71,3.14,3.14,0,0,1-.94,2.36,3.65,3.65,0,0,1-2.68.93,3.24,3.24,0,0,1-2.14-.74,14.08,14.08,0,0,1-2-2.22,7.58,7.58,0,0,0-2.19-2,6.75,6.75,0,0,0-3.41-.73,6.62,6.62,0,0,0-3.69,1,2.86,2.86,0,0,0-1.46,2.42,2.65,2.65,0,0,0,1.08,2.17,8.81,8.81,0,0,0,2.9,1.4c1.22.37,2.89.82,5,1.35a26.44,26.44,0,0,1,6.21,2.28,10.39,10.39,0,0,1,3.66,3.12A7.12,7.12,0,0,1,927,247.07Z" transform="translate(-25 -17.59)"/><path class="cls-12" d="M950.2,252.48V217a6.09,6.09,0,0,1,1.22-4.15,4.06,4.06,0,0,1,3.18-1.38,4.2,4.2,0,0,1,3.25,1.36,6.11,6.11,0,0,1,1.24,4.17v35.53a6.12,6.12,0,0,1-1.24,4.18,4.16,4.16,0,0,1-3.25,1.39,4,4,0,0,1-3.16-1.4A6.13,6.13,0,0,1,950.2,252.48Z" transform="translate(-25 -17.59)"/><path class="cls-13" d="M975.89,228.55v1a14.47,14.47,0,0,1,4.71-4.29,12.34,12.34,0,0,1,5.89-1.37,11.56,11.56,0,0,1,5.78,1.45,9.12,9.12,0,0,1,3.8,4.09,9.92,9.92,0,0,1,1,3.32,35.37,35.37,0,0,1,.24,4.56v15.62a5.69,5.69,0,0,1-1.13,3.82,4,4,0,0,1-5.88,0,5.62,5.62,0,0,1-1.14-3.78V239a14.35,14.35,0,0,0-1.12-6.36c-.75-1.46-2.24-2.2-4.48-2.2a6.54,6.54,0,0,0-4,1.34,7.67,7.67,0,0,0-2.64,3.68,27.07,27.07,0,0,0-.59,7v10.52a5.55,5.55,0,0,1-1.16,3.83,3.84,3.84,0,0,1-3,1.28,3.65,3.65,0,0,1-2.9-1.33,5.62,5.62,0,0,1-1.14-3.78V228.67a5.37,5.37,0,0,1,1-3.58A3.49,3.49,0,0,1,972,223.9a3.6,3.6,0,0,1,3.34,2.1A5.6,5.6,0,0,1,975.89,228.55Z" transform="translate(-25 -17.59)"/><path class="cls-14" d="M1006,224.64h.9v-5c0-1.36,0-2.42.1-3.19a4.75,4.75,0,0,1,.59-2,3.83,3.83,0,0,1,3.38-1.94,4,4,0,0,1,2.82,1.2,3.68,3.68,0,0,1,1.06,1.95,18.37,18.37,0,0,1,.22,3.28v5.72h3a3.75,3.75,0,0,1,2.65.85,2.82,2.82,0,0,1,.91,2.17,2.44,2.44,0,0,1-1.3,2.37,8.29,8.29,0,0,1-3.73.67H1015v15.44a25.3,25.3,0,0,0,.14,3,3.14,3.14,0,0,0,.72,1.73,2.42,2.42,0,0,0,1.9.66,10.08,10.08,0,0,0,1.94-.26,9.59,9.59,0,0,1,1.92-.27,2.45,2.45,0,0,1,1.78.82,2.76,2.76,0,0,1,.8,2,3.37,3.37,0,0,1-2.16,3.11,14.19,14.19,0,0,1-6.2,1.08,10.43,10.43,0,0,1-5.81-1.33,6.11,6.11,0,0,1-2.59-3.66,25.35,25.35,0,0,1-.61-6.24V230.7h-1.08a3.83,3.83,0,0,1-2.69-.86,2.84,2.84,0,0,1-.93-2.18,2.74,2.74,0,0,1,1-2.17A4.16,4.16,0,0,1,1006,224.64Z" transform="translate(-25 -17.59)"/><path class="cls-15" d="M1050,243h-16a11.37,11.37,0,0,0,1.12,5,7.88,7.88,0,0,0,2.9,3.29,7.54,7.54,0,0,0,4,1.11,9.77,9.77,0,0,0,2.68-.35,8.82,8.82,0,0,0,2.35-1.11,17.18,17.18,0,0,0,2.1-1.62c.64-.57,1.47-1.35,2.48-2.33a2.64,2.64,0,0,1,1.8-.56,2.93,2.93,0,0,1,2,.71,2.56,2.56,0,0,1,.78,2,5.54,5.54,0,0,1-.87,2.66,10.49,10.49,0,0,1-2.62,2.92,14.84,14.84,0,0,1-4.4,2.33,18.67,18.67,0,0,1-6.1.92q-7.87,0-12.25-4.62t-4.37-12.52a21.33,21.33,0,0,1,1.08-6.9,15.35,15.35,0,0,1,3.15-5.46,13.5,13.5,0,0,1,5.09-3.49,17.8,17.8,0,0,1,6.7-1.22,15.49,15.49,0,0,1,8.22,2.08,13.43,13.43,0,0,1,5.14,5.37,14.37,14.37,0,0,1,1.7,6.7c0,2.11-.58,3.48-1.76,4.11A10.72,10.72,0,0,1,1050,243Zm-16-4.77h14.82q-.3-4.31-2.26-6.44a6.67,6.67,0,0,0-5.17-2.14,6.43,6.43,0,0,0-5,2.17A10.91,10.91,0,0,0,1034,238.27Z" transform="translate(-25 -17.59)"/><path class="cls-16" d="M1071.77,245.93v7a5.5,5.5,0,0,1-1.17,3.83,3.85,3.85,0,0,1-3,1.28,3.71,3.71,0,0,1-2.91-1.29,5.64,5.64,0,0,1-1.14-3.82V229.56q0-5.66,4-5.66a3.3,3.3,0,0,1,2.93,1.33,7.41,7.41,0,0,1,1,3.9,14.6,14.6,0,0,1,3-3.9,6.1,6.1,0,0,1,4.11-1.33,10.32,10.32,0,0,1,5,1.33,4,4,0,0,1,2.43,3.5,3.38,3.38,0,0,1-1,2.54,3.17,3.17,0,0,1-2.23,1,10.09,10.09,0,0,1-2.18-.57,9.79,9.79,0,0,0-3-.57,4.41,4.41,0,0,0-2.94,1,6.28,6.28,0,0,0-1.77,2.88,21.09,21.09,0,0,0-.86,4.54Q1071.77,242.15,1071.77,245.93Z" transform="translate(-25 -17.59)"/><path class="cls-17" d="M1097.94,228.55v1a14.47,14.47,0,0,1,4.71-4.29,12.34,12.34,0,0,1,5.89-1.37,11.56,11.56,0,0,1,5.78,1.45,9.12,9.12,0,0,1,3.8,4.09,9.92,9.92,0,0,1,1.05,3.32,35.37,35.37,0,0,1,.24,4.56v15.62a5.69,5.69,0,0,1-1.13,3.82,4,4,0,0,1-5.88,0,5.62,5.62,0,0,1-1.14-3.78V239a14.35,14.35,0,0,0-1.12-6.36c-.75-1.46-2.24-2.2-4.48-2.2a6.54,6.54,0,0,0-4,1.34,7.59,7.59,0,0,0-2.63,3.68,26.94,26.94,0,0,0-.6,7v10.52a5.55,5.55,0,0,1-1.16,3.83,3.82,3.82,0,0,1-3,1.28,3.65,3.65,0,0,1-2.9-1.33,5.62,5.62,0,0,1-1.14-3.78V228.67a5.37,5.37,0,0,1,1-3.58,3.49,3.49,0,0,1,2.78-1.19,3.6,3.6,0,0,1,3.34,2.1A5.6,5.6,0,0,1,1097.94,228.55Z" transform="translate(-25 -17.59)"/><path class="cls-18" d="M1148.21,253.31a25.14,25.14,0,0,1-5.73,3.55,15.66,15.66,0,0,1-6.21,1.19,11.55,11.55,0,0,1-5.53-1.28,9.18,9.18,0,0,1-5-8.2,8.6,8.6,0,0,1,2.13-5.87,10.53,10.53,0,0,1,5.84-3.26c.52-.13,1.81-.4,3.86-.83s3.82-.83,5.29-1.19,3.06-.79,4.77-1.3a8.94,8.94,0,0,0-1.3-4.88q-1.15-1.55-4.77-1.55a9.8,9.8,0,0,0-4.69.89,7.62,7.62,0,0,0-2.69,2.67c-.75,1.19-1.28,2-1.59,2.36a2.55,2.55,0,0,1-2,.57,3.44,3.44,0,0,1-2.38-.91,3,3,0,0,1-1-2.32,7.23,7.23,0,0,1,1.53-4.31,10.93,10.93,0,0,1,4.76-3.44,20.81,20.81,0,0,1,8.06-1.36,22.27,22.27,0,0,1,8.47,1.31,8,8,0,0,1,4.36,4.14,18.65,18.65,0,0,1,1.27,7.5c0,2,0,3.64,0,5s0,2.9,0,4.58a17.32,17.32,0,0,0,.76,4.94,16,16,0,0,1,.77,3.3A3.15,3.15,0,0,1,1156,257a3.94,3.94,0,0,1-2.68,1.06,3.57,3.57,0,0,1-2.48-1.22A17.9,17.9,0,0,1,1148.21,253.31Zm-.54-12.15a39.89,39.89,0,0,1-5.22,1.43c-2.29.5-3.87.87-4.75,1.11a6.39,6.39,0,0,0-2.51,1.38A3.6,3.6,0,0,0,1134,248a4.3,4.3,0,0,0,1.41,3.24,5.08,5.08,0,0,0,3.68,1.34,9.36,9.36,0,0,0,4.48-1.09,7.24,7.24,0,0,0,3-2.82c.74-1.27,1.1-3.36,1.1-6.27Z" transform="translate(-25 -17.59)"/><path class="cls-19" d="M1193.31,247.65a7.37,7.37,0,0,1-.92,3.35,11.18,11.18,0,0,1-2.78,3.4,14.12,14.12,0,0,1-4.72,2.6,19.39,19.39,0,0,1-6.41,1q-7.57,0-11.82-4.54t-4.26-12.17a20.43,20.43,0,0,1,1.95-9.13A14.26,14.26,0,0,1,1170,226a18.63,18.63,0,0,1,14.63-1.21,15,15,0,0,1,4.49,2.46,11.39,11.39,0,0,1,2.81,3.21,6.5,6.5,0,0,1,1,3.19,3.41,3.41,0,0,1-1.1,2.55,3.66,3.66,0,0,1-2.65,1,2.69,2.69,0,0,1-1.69-.53,8.51,8.51,0,0,1-1.51-1.74,12.6,12.6,0,0,0-3.13-3.51,7.53,7.53,0,0,0-10,1.74q-2.22,2.91-2.22,7.95a15.68,15.68,0,0,0,.57,4.35,10,10,0,0,0,1.65,3.39,7.07,7.07,0,0,0,2.6,2.12,7.79,7.79,0,0,0,3.36.72,7.4,7.4,0,0,0,4.2-1.17,10.14,10.14,0,0,0,3.1-3.57,8.16,8.16,0,0,1,1.62-2.21,3,3,0,0,1,2.12-.8,3.13,3.13,0,0,1,2.49,1.17A3.8,3.8,0,0,1,1193.31,247.65Z" transform="translate(-25 -17.59)"/><path class="cls-20" d="M1204.57,220a4.24,4.24,0,0,1-2.92-1.08,4.24,4.24,0,0,1,0-6,4.12,4.12,0,0,1,2.89-1.16,4.21,4.21,0,0,1,2.81,1.05,3.78,3.78,0,0,1,1.23,3,3.9,3.9,0,0,1-1.2,3A4.12,4.12,0,0,1,1204.57,220Zm4,8.67v24.27a5.54,5.54,0,0,1-1.17,3.82,3.83,3.83,0,0,1-3,1.29,3.63,3.63,0,0,1-2.92-1.33,5.67,5.67,0,0,1-1.13-3.78v-24a5.48,5.48,0,0,1,1.13-3.75,3.7,3.7,0,0,1,2.92-1.27,3.84,3.84,0,0,1,3,1.27A5,5,0,0,1,1208.61,228.67Z" transform="translate(-25 -17.59)"/><path class="cls-21" d="M1247.65,241a20.3,20.3,0,0,1-1.13,6.92,15.37,15.37,0,0,1-3.3,5.44,14.38,14.38,0,0,1-5.15,3.49,17.74,17.74,0,0,1-6.73,1.22,17.29,17.29,0,0,1-6.68-1.23,14.91,14.91,0,0,1-5.14-3.52,15.47,15.47,0,0,1-3.29-5.42,20.22,20.22,0,0,1-1.12-6.9,20.79,20.79,0,0,1,1.13-7,15.29,15.29,0,0,1,3.27-5.41,14.31,14.31,0,0,1,5.15-3.46,19,19,0,0,1,13.41,0,14.63,14.63,0,0,1,5.18,3.51,15.23,15.23,0,0,1,3.28,5.41A20.44,20.44,0,0,1,1247.65,241Zm-8.2,0c0-3.43-.73-6.09-2.2-8a7.07,7.07,0,0,0-5.91-2.86,7.21,7.21,0,0,0-4.23,1.27,8.12,8.12,0,0,0-2.81,3.77,17.57,17.57,0,0,0,0,11.57,8.28,8.28,0,0,0,2.79,3.77,7.58,7.58,0,0,0,10.18-1.57Q1239.46,246.05,1239.45,241Z" transform="translate(-25 -17.59)"/><path class="cls-22" d="M1261.52,228.55v1a14.5,14.5,0,0,1,4.72-4.29,12.27,12.27,0,0,1,5.88-1.37,11.54,11.54,0,0,1,5.78,1.45,9.07,9.07,0,0,1,3.8,4.09,9.92,9.92,0,0,1,1,3.32,35.37,35.37,0,0,1,.24,4.56v15.62a5.69,5.69,0,0,1-1.12,3.82,4,4,0,0,1-5.89,0,5.62,5.62,0,0,1-1.14-3.78V239a14.35,14.35,0,0,0-1.12-6.36c-.75-1.46-2.24-2.2-4.47-2.2a6.55,6.55,0,0,0-4,1.34,7.72,7.72,0,0,0-2.63,3.68,26.94,26.94,0,0,0-.6,7v10.52a5.6,5.6,0,0,1-1.15,3.83,3.85,3.85,0,0,1-3,1.28,3.65,3.65,0,0,1-2.91-1.33,5.62,5.62,0,0,1-1.14-3.78V228.67a5.37,5.37,0,0,1,1-3.58,3.49,3.49,0,0,1,2.79-1.19,3.67,3.67,0,0,1,1.94.53A3.72,3.72,0,0,1,1261,226,5.73,5.73,0,0,1,1261.52,228.55Z" transform="translate(-25 -17.59)"/><path class="cls-23" d="M1311.8,253.31a25.19,25.19,0,0,1-5.74,3.55,15.66,15.66,0,0,1-6.21,1.19,11.55,11.55,0,0,1-5.53-1.28,9.2,9.2,0,0,1-5-8.2,8.65,8.65,0,0,1,2.12-5.87,10.56,10.56,0,0,1,5.84-3.26c.52-.13,1.81-.4,3.87-.83s3.81-.83,5.28-1.19,3.06-.79,4.78-1.3a8.93,8.93,0,0,0-1.31-4.88q-1.15-1.55-4.77-1.55a9.8,9.8,0,0,0-4.69.89,7.71,7.71,0,0,0-2.69,2.67c-.75,1.19-1.28,2-1.59,2.36a2.55,2.55,0,0,1-2,.57,3.45,3.45,0,0,1-2.38-.91,3,3,0,0,1-1-2.32,7.23,7.23,0,0,1,1.53-4.31,11,11,0,0,1,4.76-3.44,20.81,20.81,0,0,1,8.06-1.36,22.27,22.27,0,0,1,8.47,1.31,8,8,0,0,1,4.36,4.14,18.48,18.48,0,0,1,1.27,7.5c0,2,0,3.64,0,5s0,2.9,0,4.58a17.68,17.68,0,0,0,.76,4.94,16,16,0,0,1,.77,3.3,3.17,3.17,0,0,1-1.18,2.36,4,4,0,0,1-2.68,1.06,3.59,3.59,0,0,1-2.49-1.22A17.52,17.52,0,0,1,1311.8,253.31Zm-.54-12.15a40.12,40.12,0,0,1-5.23,1.43c-2.28.5-3.87.87-4.74,1.11a6.43,6.43,0,0,0-2.52,1.38,3.6,3.6,0,0,0-1.2,2.88,4.3,4.3,0,0,0,1.41,3.24,5.08,5.08,0,0,0,3.68,1.34,9.36,9.36,0,0,0,4.48-1.09,7.18,7.18,0,0,0,3-2.82q1.11-1.9,1.11-6.27Z" transform="translate(-25 -17.59)"/><path class="cls-24" d="M1327.57,252.94V216.52a5.75,5.75,0,0,1,1.1-3.81,3.67,3.67,0,0,1,2.95-1.29,3.82,3.82,0,0,1,3,1.27,5.6,5.6,0,0,1,1.14,3.83v36.42a5.6,5.6,0,0,1-1.15,3.83,3.85,3.85,0,0,1-3,1.28,3.63,3.63,0,0,1-2.92-1.33A5.67,5.67,0,0,1,1327.57,252.94Z" transform="translate(-25 -17.59)"/><path class="cls-25" d="M1367,243h-16a11.37,11.37,0,0,0,1.12,5,7.83,7.83,0,0,0,2.91,3.29,7.49,7.49,0,0,0,4,1.11,9.82,9.82,0,0,0,2.68-.35,8.77,8.77,0,0,0,2.34-1.11,17.18,17.18,0,0,0,2.1-1.62c.64-.57,1.47-1.35,2.49-2.33a2.61,2.61,0,0,1,1.79-.56,2.93,2.93,0,0,1,2,.71,2.56,2.56,0,0,1,.78,2,5.54,5.54,0,0,1-.87,2.66,10.33,10.33,0,0,1-2.62,2.92,14.72,14.72,0,0,1-4.4,2.33,18.67,18.67,0,0,1-6.1.92q-7.87,0-12.24-4.62t-4.37-12.52a21.6,21.6,0,0,1,1.07-6.9,15.35,15.35,0,0,1,3.15-5.46,13.57,13.57,0,0,1,5.09-3.49,17.8,17.8,0,0,1,6.7-1.22,15.49,15.49,0,0,1,8.22,2.08,13.43,13.43,0,0,1,5.14,5.37,14.38,14.38,0,0,1,1.71,6.7q0,3.16-1.77,4.11A10.69,10.69,0,0,1,1367,243Zm-16-4.77h14.82q-.3-4.31-2.26-6.44a6.66,6.66,0,0,0-5.16-2.14,6.45,6.45,0,0,0-5,2.17A10.91,10.91,0,0,0,1351,238.27Z" transform="translate(-25 -17.59)"/><path class="cls-26" d="M1407,247.07a10.49,10.49,0,0,1-1.65,6,10.1,10.1,0,0,1-4.87,3.75,21.25,21.25,0,0,1-7.83,1.28,18.49,18.49,0,0,1-7.54-1.39,10.86,10.86,0,0,1-4.64-3.46,7.06,7.06,0,0,1-1.5-4.16,3.25,3.25,0,0,1,1-2.37,3.2,3.2,0,0,1,2.42-1,2.79,2.79,0,0,1,2,.65,7,7,0,0,1,1.32,1.81,9.1,9.1,0,0,0,3,3.36,9,9,0,0,0,4.78,1.1,6.76,6.76,0,0,0,4-1.12,3.16,3.16,0,0,0,1.57-2.57,3.53,3.53,0,0,0-1.63-3.23,20.25,20.25,0,0,0-5.38-1.94,43.12,43.12,0,0,1-6.87-2.26,11.35,11.35,0,0,1-4.24-3.12,7.31,7.31,0,0,1-1.58-4.77,8.59,8.59,0,0,1,1.46-4.76,10.1,10.1,0,0,1,4.33-3.59,16.24,16.24,0,0,1,6.9-1.34,22.19,22.19,0,0,1,5.71.68,14.05,14.05,0,0,1,4.22,1.82,8.59,8.59,0,0,1,2.57,2.52,5,5,0,0,1,.89,2.71,3.18,3.18,0,0,1-.94,2.36,3.67,3.67,0,0,1-2.68.93,3.26,3.26,0,0,1-2.15-.74,14.08,14.08,0,0,1-2-2.22,7.55,7.55,0,0,0-2.18-2,6.79,6.79,0,0,0-3.42-.73,6.61,6.61,0,0,0-3.68,1,2.85,2.85,0,0,0-1.47,2.42,2.65,2.65,0,0,0,1.08,2.17,9,9,0,0,0,2.91,1.4q1.82.56,5,1.35a26.79,26.79,0,0,1,6.21,2.28,10.35,10.35,0,0,1,3.65,3.12A7.05,7.05,0,0,1,1407,247.07Z" transform="translate(-25 -17.59)"/><path class="cls-27" d="M302.08,152.89V159a1.68,1.68,0,0,0,1.66,1.7h47.32a1.68,1.68,0,0,1,1.66,1.7v8.88a1.69,1.69,0,0,1-1.66,1.71H303.74a1.68,1.68,0,0,0-1.66,1.7v8.76a1.69,1.69,0,0,0,1.66,1.71h48.65a1.69,1.69,0,0,1,1.67,1.7v11.6a1.69,1.69,0,0,1-1.67,1.7H287.75a1.69,1.69,0,0,1-1.67-1.7V137.91a1.69,1.69,0,0,1,1.67-1.7h64.64a1.69,1.69,0,0,1,1.67,1.7v11.58a1.69,1.69,0,0,1-1.67,1.7H303.74A1.68,1.68,0,0,0,302.08,152.89Z" transform="translate(-25 -17.59)"/><path class="cls-28" d="M438,140V180.1a19.87,19.87,0,0,1-19.66,20.08h-38a19.87,19.87,0,0,1-19.66-20.08V140a2.47,2.47,0,0,1,2.44-2.5h11.11a2.47,2.47,0,0,1,2.44,2.5v38.5c0,3.63,5.55,6.58,9.11,6.58h27.1c3.56,0,9.11-3,9.11-6.58V140a2.47,2.47,0,0,1,2.44-2.5h11.11A2.47,2.47,0,0,1,438,140Z" transform="translate(-25 -17.59)"/><path class="cls-29" d="M514,176.52s9.72-2,9.52-13.55l-.19-12.65h0a12.51,12.51,0,0,0-12.23-12.78h-62.4v62.64H466V184.87h31.78a6.73,6.73,0,0,1,6.45,4.89,9.53,9.53,0,0,1,.36,2.5c.06,5.14.06,7.92.06,7.92h18.66V188.26a12.48,12.48,0,0,0-1.29-5.68A11,11,0,0,0,514,176.52Zm-48-10.44V155.52a2.62,2.62,0,0,1,2.56-2.67h33.29a4.69,4.69,0,0,1,4.52,4.86c0,1.79.47,5.12-.29,7.41a4.82,4.82,0,0,1-4.25,3H468A2.05,2.05,0,0,1,466,166.08Z" transform="translate(-25 -17.59)"/><path class="cls-30" d="M861.86,176.19s6.86-1.7,6.66-13.22l-.18-12.65h0c0-7.06-3.81-12.78-11.81-12.78H795.22v62.64H812.5v-18h34.37a6.72,6.72,0,0,1,6.43,4.89,9.49,9.49,0,0,1,.35,2.5c.07,5.13.07,10.58.07,10.58h15.95V188.26a12.48,12.48,0,0,0-1.29-5.68C867.13,180.16,866.25,177,861.86,176.19ZM812.5,166.08V155.52a2.62,2.62,0,0,1,2.55-2.67h33.21a4.68,4.68,0,0,1,4.51,4.86c0,1.79.46,5.12-.29,7.41a4.81,4.81,0,0,1-4.24,3H814.5A2,2,0,0,1,812.5,166.08Z" transform="translate(-25 -17.59)"/><path class="cls-31" d="M528.66,153.68v30.37a15.87,15.87,0,0,0,15.6,16.13H597a15.87,15.87,0,0,0,15.6-16.13V153.68A15.88,15.88,0,0,0,597,137.54H544.26A15.88,15.88,0,0,0,528.66,153.68Zm19.27,24.2v-20.7a6.53,6.53,0,0,1,6.42-6.64h33.91a6.53,6.53,0,0,1,6.42,6.64v20.7a6.53,6.53,0,0,1-6.42,6.64H554.35A6.53,6.53,0,0,1,547.93,177.88Z" transform="translate(-25 -17.59)"/><path class="cls-32" d="M673.34,184.52H643.87c-3.21,0-5.81-3-5.81-6.64v-18c0-3.67,2.6-6.65,5.81-6.65h29.47c3.21,0,5.81,3,5.81,6.65v.47h17.44v-6.64c0-8.91-6.32-16.14-14.11-16.14H634.73c-7.79,0-14.11,7.23-14.11,16.14v30.37c0,8.91,6.32,16.13,14.11,16.13h47.75c7.79,0,14.11-7.22,14.11-16.13v-9.19H679.26C678.86,178.08,679.26,184.19,673.34,184.52Z" transform="translate(-25 -17.59)"/><path class="cls-33" d="M1019.64,136.21H992a1.35,1.35,0,0,0-1.21.74l-31.6,61.9h19.1a1.38,1.38,0,0,0,1.25-.83l3.42-7.87a1.37,1.37,0,0,1,1.26-.84h43.23a1.37,1.37,0,0,1,1.26.84l3.42,7.87a1.38,1.38,0,0,0,1.25.83h19.1l-31.6-61.9A1.35,1.35,0,0,0,1019.64,136.21Zm-15.38,14.49a1.37,1.37,0,0,1,1.25-.84h.59a1.37,1.37,0,0,1,1.25.84l13.12,24.16H991.14Z" transform="translate(-25 -17.59)"/><path class="cls-34" d="M1242.22,136.21h-27.67a1.36,1.36,0,0,0-1.21.74l-31.6,61.9h19.1a1.38,1.38,0,0,0,1.25-.83l3.42-7.87a1.37,1.37,0,0,1,1.26-.84H1250a1.37,1.37,0,0,1,1.26.84l3.42,7.87a1.38,1.38,0,0,0,1.26.83H1275l-31.6-61.9A1.35,1.35,0,0,0,1242.22,136.21Zm-15.38,14.49a1.37,1.37,0,0,1,1.25-.84h.59a1.37,1.37,0,0,1,1.25.84l13.12,24.16h-29.32Z" transform="translate(-25 -17.59)"/><path class="cls-35" d="M758.41,136.21H730.74a1.37,1.37,0,0,0-1.22.74l-31.6,61.9H717a1.38,1.38,0,0,0,1.26-.83l3.42-7.87a1.37,1.37,0,0,1,1.25-.84h43.24a1.38,1.38,0,0,1,1.26.84l3.42,7.87a1.38,1.38,0,0,0,1.25.83h19.1L759.62,137A1.36,1.36,0,0,0,758.41,136.21ZM743,150.7a1.38,1.38,0,0,1,1.26-.84h.59a1.37,1.37,0,0,1,1.25.84l13.11,24.16H729.91Z" transform="translate(-25 -17.59)"/><path class="cls-36" d="M939.17,159.85c.43-5.22-2.79-8.07-6.23-8.07H901.4c-3.43,0-6.22,4.4-6.22,8.07v19.54c0,3.67,2.79,5.32,6.22,5.32h33.5a11,11,0,0,0,1.9,0c2.67-1.13,2-4.92,2.1-7.27a2.48,2.48,0,0,0-2.45-2.61H916.93a1.24,1.24,0,0,1-1.23-1.25v-7.65a1.24,1.24,0,0,1,1.23-1.25h38.91a2,2,0,0,1,2,2v16c0,8.91-6.75,17.46-15.11,17.46H891.63c-8.35,0-15.11-7.21-15.11-16.13V153.67c0-8.91,6.76-16.13,15.11-16.13h51.08c8.36,0,15.11,7.22,15.11,16.13v6.65H939.17Z" transform="translate(-25 -17.59)"/><path class="cls-37" d="M1103.72,155.23v3.28a3,3,0,0,0,3,3h38.07a8.94,8.94,0,0,1,8.94,8.94v15.28a13.11,13.11,0,0,1-13.11,13.1h-52.06a1.47,1.47,0,0,1-1.47-1.47V185.66a1.47,1.47,0,0,1,1.47-1.47h47.48a5,5,0,0,0,5-5v-2.05a5,5,0,0,0-5-5h-33.82a15.12,15.12,0,0,1-15.13-15.13v-4.39a15.13,15.13,0,0,1,15.13-15.13h50a1.47,1.47,0,0,1,1.47,1.47V149.4a1.47,1.47,0,0,1-1.47,1.47h-45.54C1105.07,150.87,1103.72,153.56,1103.72,155.23Z" transform="translate(-25 -17.59)"/><path class="cls-38" d="M1325,155.23v3.28a3,3,0,0,0,3,3h38.07a9,9,0,0,1,8.94,8.94v15.28a13.11,13.11,0,0,1-13.11,13.1h-52.07a1.46,1.46,0,0,1-1.46-1.47V185.66a1.46,1.46,0,0,1,1.46-1.47h47.49a5,5,0,0,0,5-5v-2.05a5,5,0,0,0-5-5h-33.82a15.12,15.12,0,0,1-15.13-15.13v-4.39a15.13,15.13,0,0,1,15.13-15.13h50A1.47,1.47,0,0,1,1375,139V149.4a1.47,1.47,0,0,1-1.47,1.47H1328C1326.32,150.87,1325,153.56,1325,155.23Z" transform="translate(-25 -17.59)"/><rect class="cls-39" x="1132.75" y="165.27" width="19.99" height="15.99"/><rect class="cls-40" x="1252.7" y="165.27" width="19.99" height="15.99"/><path class="cls-41" d="M1381.66,118.38a23.49,23.49,0,1,1,23.49-23.49A23.52,23.52,0,0,1,1381.66,118.38Zm0-42.65a19.16,19.16,0,1,0,19.16,19.16A19.19,19.19,0,0,0,1381.66,75.73Z" transform="translate(-25 -17.59)"/><path class="cls-42" d="M1393.66,107.25h-4.92l-6.28-10.74h-4.92v10.74h-4.35V81.75h10.59a8.48,8.48,0,0,1,5.86,2.18,6.7,6.7,0,0,1,2.45,5.22,6.57,6.57,0,0,1-1.42,4.1,8.12,8.12,0,0,1-3.64,2.67Zm-9.88-14.61a4,4,0,0,0,2.79-1,3.2,3.2,0,0,0,1.15-2.46,3.28,3.28,0,0,0-1.15-2.5,4.08,4.08,0,0,0-2.79-1h-6.24v7Z" transform="translate(-25 -17.59)"/><path class="cls-43" d="M1042.56,289.19l.75,1.91q-6.36,2.85-14.46,5.88l-1.51.56c.24-1.31.47-2.9.7-4.76.19-1.5.37-2.82.52-4a29,29,0,0,0,.35-3.92q0-3.42-3.36-3.42-5.43,0-12.84,4.65-9.94,6.22-9.94,14.4a3.73,3.73,0,0,0,2.63,3.89q2.63.92,11.25.92h.75c.11-1.19.17-2,.17-2.46a22.94,22.94,0,0,0-1.39-8.35q5.79,1.35,5.79,9.86v.95l9.08-.16c4.2,0,7.17.29,8.9.89q8.63,3,8.62,12.21,0,12.44-9.6,23.86-11.45,13.62-27.93,13.62-12.09,0-18.39-9.47A57.52,57.52,0,0,1,962.28,355a47,47,0,0,1-22.43-5.38q-19.73-10.53-19.72-36,0-16.12,8.84-26.44a28.49,28.49,0,0,1,22.62-10.31,34.06,34.06,0,0,1,23,8.35,35.12,35.12,0,0,1,8.68,11.23q3.3,6.64,7.52,21.2l2.89,10.08A95.6,95.6,0,0,0,998,340.16q5.71-3.3,11.48-12t7.08-16l-2.66,0q-9.66,0-13.62-1.54c-2.64-1-4-2.81-4-5.35q0-6.15,7-14.06a40.89,40.89,0,0,1,13.24-9.94q7.63-3.61,19.72-5.63l2-.33-.18.89c-.38,1.68-.69,3.18-.92,4.48l-.93,5.27a26.92,26.92,0,0,0-.4,3.25c0,1.08.46,1.62,1.39,1.62a5.74,5.74,0,0,0,2-.39Zm-50.9,55.06a70.34,70.34,0,0,1-4.1-10.64l-4.63-16.47q-5.49-19.67-13.24-28.54a24.61,24.61,0,0,0-19.32-8.88q-12.09,0-18.88,7.85t-6.8,21.73a44,44,0,0,0,10.18,27.45,41.13,41.13,0,0,0,14.29,10.64,42,42,0,0,0,17.58,3.81Q979.06,351.2,991.66,344.25ZM1020.93,312a47.5,47.5,0,0,1-8.16,16.42,58.13,58.13,0,0,1-13.88,13.83q2.83,5.88,6.25,8.26a15.2,15.2,0,0,0,8.9,2.39q11.18,0,19.75-8.91t8.59-20.45q0-6.49-3.73-9t-13.39-2.49h-2.89Z" transform="translate(-25 -17.59)"/><path class="cls-44" d="M1068.45,307.4V308q0,5.26-7.17,20.84l-4.28,9.41q-3.4,7.56-3.53,9.24c0,1.16.62,1.7,2,1.63a13.41,13.41,0,0,0,3.82-1.18l.75,1.62a143.35,143.35,0,0,1-14.52,6,37.36,37.36,0,0,1,1.77-9.72,147,147,0,0,1,6.39-14.76q6.24-13.21,6.36-15.46c.07-1.16-.43-1.74-1.51-1.74a6.51,6.51,0,0,0-2,.4l-2.43.84a9.21,9.21,0,0,0-1.1.39l-.58-1.79,1.22-.4q6.42-2.29,13.07-5.15Zm3.36-14.34c1.77,0,2.66.86,2.66,2.57a3.66,3.66,0,0,1-1.19,2.64,3.74,3.74,0,0,1-2.69,1.17c-1.81,0-2.72-.86-2.72-2.57a3.65,3.65,0,0,1,1.19-2.64A3.8,3.8,0,0,1,1071.81,293.06Z" transform="translate(-25 -17.59)"/><path class="cls-45" d="M1102,347.17l.93,1.51a43.47,43.47,0,0,1-16.43,6.72q1.21-9.24,11.22-28.06l3.76-6.95q1.9-3.58,1.91-4.59c0-1-.43-1.51-1.27-1.51-1.2,0-3.46,1.3-6.8,3.92a81.72,81.72,0,0,0-9.74,9.07,93.44,93.44,0,0,0-16.49,25.54,51.77,51.77,0,0,0-7.69,2.69q5.32-10.53,10.73-23.66t5.41-15.55q0-2-1.68-2a18.13,18.13,0,0,0-3.76.84l-.63.16-.35-1.79a114.27,114.27,0,0,0,14.63-5l.75-.34a7.61,7.61,0,0,1,.12,1q0,5-7.58,21.23l-.81,1.68,1-1.06a129.49,129.49,0,0,1,17.49-16.5q8-6,12.52-6c1.89,0,2.83.93,2.83,2.8s-2.52,7.68-7.57,17.2q-9.08,17-9.08,19.15c0,1.09.52,1.63,1.56,1.63a10.1,10.1,0,0,0,4.74-1.85Z" transform="translate(-25 -17.59)"/><path class="cls-46" d="M1148.12,308.18,1140,322.91h-2l.47-1c1.34-2.84,2-4.8,2-5.88q0-2-4.4-2a15.12,15.12,0,0,0-11.68,5.55,49.93,49.93,0,0,0-8,12.57c-2.21,4.88-3.32,9-3.32,12.3q0,6.16,5.84,6.16c3.31,0,6.73-1.38,10.23-4.15a33.62,33.62,0,0,0,8.85-10.92l1.51-2.8c.07-.15.25-.47.52-.95a4.24,4.24,0,0,1,.63,2.18q0,4.81-7.4,11.77-10.93,10.19-20,10.19-7.7,0-7.69-8.4,0-7.23,5-15.57A56.63,56.63,0,0,1,1124,317q11.16-8.91,21.8-8.91C1146.21,308.07,1147,308.11,1148.12,308.18Z" transform="translate(-25 -17.59)"/><path class="cls-47" d="M1170.49,330.47a6.26,6.26,0,0,1,.81,2.8q0,5.39-7.69,12.38-11.22,10.26-19.09,10.25-6.76,0-6.76-7.45,0-8.4,5.29-17.64a48.13,48.13,0,0,1,13.56-15.24q10.07-7.27,17.93-7.28c3,0,4.57,1.09,4.57,3.25q0,2.13-2.2,5.13a25.38,25.38,0,0,1-5.49,5.4,36.2,36.2,0,0,1-7.78,4,21.64,21.64,0,0,1-7.26,1.85,3.8,3.8,0,0,1-3.76-2.91,30.65,30.65,0,0,0,3.88.34,19,19,0,0,0,10.66-3.22q4.89-3.23,4.89-7,0-2.69-3.58-2.69-6.42,0-13.13,7.62a46.63,46.63,0,0,0-7.81,12.55,33.1,33.1,0,0,0-3.06,12.77c0,3.85,1.65,5.77,5,5.77q5.43,0,11.31-5.8A45.75,45.75,0,0,0,1170.49,330.47Z" transform="translate(-25 -17.59)"/><path class="cls-48" d="M1225,289.19l-.34-1.73,1.5-.34,6.71-1.51,5.09-1.12a39.79,39.79,0,0,0,8.44-3q-1.9,4.37-5.67,14.51-13.82,37.3-23.07,54.89l-.75,1.4-.87.45a30.66,30.66,0,0,1-9,3.08,139.43,139.43,0,0,0,9.71-18q5.61-11.93,10.12-24.14l6-16.3c1.58-4.22,2.39-6.81,2.42-7.79.08-1.23-.52-1.84-1.79-1.84a26.84,26.84,0,0,0-4.28.67C1227.35,288.78,1225.93,289,1225,289.19Z" transform="translate(-25 -17.59)"/><path class="cls-49" d="M1288.37,298a5.27,5.27,0,0,1,2.26,4.64q0,4.71-5.61,10.87-6.13,6.78-13.07,6.78a10.73,10.73,0,0,1-8.21-3.25,12.2,12.2,0,0,1-3.07-8.74q0-10.86,9.43-19.27,8.45-7.5,17.35-7.5a11.29,11.29,0,0,1,9.37,4.23q3.35,4.23,3.35,11.84,0,22.25-25.15,43.58a86.14,86.14,0,0,1-16.11,11.09q-7.89,4.1-13.1,4.09c-1.58,0-2.64-.45-3.18-1.34a64.24,64.24,0,0,0,31.81-16.08,62.44,62.44,0,0,0,13.93-19.07q5.39-11.17,5.38-20.87a13.7,13.7,0,0,0-3.29-9.49,11,11,0,0,0-8.56-3.67q-6.42,0-11,5.49a20,20,0,0,0-4.57,13.22,12.48,12.48,0,0,0,2.63,8.29,8.6,8.6,0,0,0,6.91,3.14q5.32,0,8.74-4.91T1288.37,298Z" transform="translate(-25 -17.59)"/><path class="cls-50" d="M1319.19,316.69a22.82,22.82,0,0,1-5.73-15q0-7.89,7.55-14.51t16.51-6.61a12.83,12.83,0,0,1,9,3.11,10.6,10.6,0,0,1,3.41,8.21,18.43,18.43,0,0,1-5.9,13.72,19.65,19.65,0,0,1-14.17,5.72q-4.57,0-4.57-3.76a5.73,5.73,0,0,1,.06-.72,9.63,9.63,0,0,0,6,2.4q4.74,0,8.36-4.73a17.45,17.45,0,0,0,3.61-10.89,8.64,8.64,0,0,0-2.86-6.84,11.27,11.27,0,0,0-7.72-2.52,13.12,13.12,0,0,0-9.77,4,13.72,13.72,0,0,0-3.94,10,20.32,20.32,0,0,0,2.09,8.06,29.77,29.77,0,0,0,5.14,8l2.14,2.35q7.63,8.42,7.64,15.74,0,10.71-11,18.55-7.52,5.37-14.11,5.37a15.46,15.46,0,0,1-11-4,13.5,13.5,0,0,1-4.31-10.31A22.66,22.66,0,0,1,1302,326.1Q1308.43,319.21,1319.19,316.69Zm1.21,1.63a25.46,25.46,0,0,0-13.07,8.15,20.14,20.14,0,0,0-5,13.3q0,5.78,3.32,9.13a12.1,12.1,0,0,0,9,3.36,14.52,14.52,0,0,0,10.9-4.45,15.58,15.58,0,0,0,4.31-11.29,16.81,16.81,0,0,0-1.8-7.7,54.26,54.26,0,0,0-7-9.66Z" transform="translate(-25 -17.59)"/><path class="cls-51" d="M1366,317q18.8,2,18.8,15.12,0,9.87-8.3,17a29.27,29.27,0,0,1-19.75,7.15q-7.57,0-12.35-2.89t-4.77-7.42a15.45,15.45,0,0,1,.92-4.76q1.34,4.26,6.22,6.69a26.8,26.8,0,0,0,12.06,2.44q9.89,0,16.39-5.43a17.14,17.14,0,0,0,6.51-13.73q0-12.76-22-12.77c-.77,0-2.16.09-4.16.28a54.45,54.45,0,0,0,5.55-8.63c1.47.12,2.53.17,3.18.17a31.35,31.35,0,0,0,18.11-5.24q7.68-5.24,7.69-12.29a7,7,0,0,0-2.84-5.74,11.13,11.13,0,0,0-7.17-2.27,15.09,15.09,0,0,0-10.32,3.92,18.68,18.68,0,0,0-5.81,10.42,4.53,4.53,0,0,1-2.55-4.31q0-5.33,7.64-8.91a42.42,42.42,0,0,1,18-4.2,11.47,11.47,0,0,1,7.69,2.46,8.25,8.25,0,0,1,2.89,6.61q0,7.57-8.38,14.06-5.79,4.49-15.1,6.11a11.59,11.59,0,0,0-4.71,1.62,12.8,12.8,0,0,0-3.15,4Z" transform="translate(-25 -17.59)"/><path class="cls-52" d="M507.77,130.88H489.91c-.41-.74-.83-1.46-1.24-2.18C454.54,69.63,393.29,30.25,323.4,30.25c-66.81,0-125.74,36-160.6,90.78-.82,1.26-1.62,2.56-2.4,3.85H142.8v-1.09c.55-1,1.1-2,1.66-2.91a206.65,206.65,0,0,1,361.22,6C506.4,128.2,507.09,129.53,507.77,130.88Z" transform="translate(-25 -17.59)"/><rect x="479.66" y="189.26" width="18.66" height="15.99"/><path class="cls-53" d="M463.47,365.45c-25,32-66.1,48-128.07,48-102.84,0-180.95-67.61-198.75-161.31q-7.44,0-14.88-.16c10,104.09,98.44,177.46,209,177.46,69.64,0,123-22.1,154.93-64Z" transform="translate(-25 -17.59)"/><line class="cls-54" x1="461" y1="347.87" x2="460.66" y2="347.87"/><line class="cls-54" x1="438.47" y1="347.87" x2="438.35" y2="347.87"/><path class="cls-55" d="M640.61,369.45H395.37c-34.65,2.67-80-21.32-88-41.32H610ZM170.89,279c27.65,35.86,61.88,35.86,61.88,35.86H599.29l-24-30.66H256.76c-28.36,2.27-72.16-5.11-84.58-7.36A1.34,1.34,0,0,0,170.89,279Zm-20.76-14.79H563.31L534,222.84H144.8c-66.52-3.27-105.39-25.28-117.31-33.17a1.64,1.64,0,0,0-2.43,1.9C43.51,261.49,150.13,264.16,150.13,264.16Zm118.63-53.31s-34.66-14.66-36-40,53.31-45.31,53.31-45.31-112-1.34-119.95,42.65C166.13,168.2,159.46,200.18,268.76,210.85Zm-77.31-2.67s-37.57-13.33-38.65-38.65,32-41.32,32-41.32-86.64,2.67-84,40C100.82,168.2,104.74,196.19,191.45,208.18Zm-84-13.33s-22.9-5.11-24-27.48,32-36.49,32-36.49-80,6.66-81.3,29.32C34.18,160.2,27.51,185.52,107.48,194.85Z" transform="translate(-25 -17.59)"/></svg>